 <svg version="1.0" xmlns="http://www.w3.org/2000/svg" width="700.000000pt" height="78.000000pt" viewBox="0 0 700.000000 78.000000" preserveAspectRatio="xMidYMid meet">
<g transform="translate(0.000000,78.000000) scale(0.100000,-0.100000)" fill="#000000" stroke="none">
<path d="M80 730 c0 -27 -3 -30 -30 -30 l-30 0 2 -312 3 -313 25 0 c20 0 26
-6 28 -27 l3 -28 130 0 129 0 0 31 c0 26 3 30 23 27 21 -3 22 1 25 75 l3 77
129 0 130 0 0 25 c0 20 5 25 25 25 21 0 25 5 25 30 0 25 4 30 25 30 l25 0 0
155 0 155 -25 0 c-20 0 -25 5 -25 25 0 20 -5 25 -24 25 -19 0 -25 6 -28 28
l-3 27 -282 3 -283 2 0 -30z m100 -55 c0 -20 -5 -25 -25 -25 -20 0 -25 -5 -25
-25 0 -20 -5 -25 -24 -25 -21 0 -24 5 -28 46 -2 25 -1 47 1 50 2 2 26 4 53 4
45 0 48 -2 48 -25z m310 -180 l0 -105 -50 0 -50 0 0 105 0 105 50 0 50 0 0
-105z"></path>
<path d="M3109 753 c-1 -5 -2 -12 -4 -18 -1 -5 -3 -16 -3 -22 -1 -7 -13 -13
-27 -13 l-25 0 2 -312 3 -313 25 0 c20 0 25 -5 25 -25 l0 -25 127 -3 127 -3 3
28 c2 22 8 28 28 28 l25 0 3 133 3 132 49 0 49 0 3 -132 3 -133 25 0 c20 0 25
-5 25 -25 0 -24 2 -25 77 -28 l77 -3 3 28 c2 22 8 28 26 27 l22 -1 0 314 0
313 -25 0 c-21 0 -25 5 -25 30 l0 31 -77 -3 c-76 -3 -78 -4 -78 -28 0 -20 -6
-26 -27 -28 l-28 -3 0 -105 0 -104 -50 0 -50 0 0 104 0 105 -27 3 c-22 2 -29
9 -31 31 l-3 27 -125 0 c-68 0 -125 -3 -125 -7z m101 -78 c0 -20 -5 -25 -25
-25 -20 0 -25 -5 -25 -25 0 -21 -5 -25 -30 -25 -29 0 -30 1 -30 50 l0 50 55 0
c52 0 55 -1 55 -25z"></path>
<path d="M5090 730 c0 -25 -4 -30 -25 -30 l-25 0 0 -313 0 -314 23 1 c17 1 23
-5 25 -26 l3 -28 129 0 129 0 3 28 c2 19 9 28 26 30 16 3 22 10 22 28 0 19 5
24 25 24 20 0 25 5 25 25 0 21 5 25 30 25 25 0 30 -4 30 -25 0 -20 5 -25 25
-25 20 0 25 -5 25 -25 0 -20 5 -25 25 -25 21 0 25 -5 25 -30 l0 -30 80 0 80 0
0 31 c0 26 3 30 23 27 l22 -3 3 313 2 312 -24 0 c-19 0 -25 6 -28 28 -3 27 -4
27 -78 27 -74 0 -75 0 -78 -27 -3 -22 -9 -28 -28 -28 l-24 0 0 -155 0 -155
-25 0 c-20 0 -25 5 -25 25 0 34 -47 37 -52 3 -2 -17 -11 -24 -30 -26 l-28 -3
0 155 0 156 -24 0 c-19 0 -25 6 -28 28 l-3 27 -127 3 -128 3 0 -31z m100 -55
c0 -20 -5 -25 -25 -25 -20 0 -25 -5 -25 -25 0 -20 -5 -25 -25 -25 -23 0 -25 3
-25 50 l0 50 50 0 c47 0 50 -2 50 -25z"></path>
<path d="M960 626 c0 -19 6 -25 28 -28 19 -2 28 -9 30 -25 3 -17 -2 -22 -25
-25 -22 -2 -29 -9 -31 -30 -3 -22 -9 -28 -28 -28 -20 0 -24 5 -24 30 0 25 -4
30 -25 30 l-25 0 0 -210 0 -210 25 0 c20 0 25 -5 25 -25 0 -23 13 -31 43 -26
4 0 7 -12 7 -29 l0 -30 209 0 210 0 3 28 c2 21 8 27 26 26 18 0 22 5 22 28 0
23 4 28 25 28 l25 0 0 210 0 210 -25 0 c-20 0 -25 5 -25 25 0 20 -5 25 -25 25
-20 0 -25 5 -25 25 l0 25 -210 0 -210 0 0 -24z m370 -266 l0 -130 -80 0 -80 0
0 130 0 130 80 0 80 0 0 -130z"></path>
<path d="M1640 625 c0 -20 -5 -25 -25 -25 l-25 0 0 -260 0 -260 25 0 c21 0 25
-5 25 -30 l0 -30 104 0 105 0 3 28 c2 21 8 27 26 26 20 -1 22 4 22 53 0 52 0
53 30 53 25 0 30 -4 30 -25 0 -20 5 -25 25 -25 21 0 25 -5 25 -28 0 -23 4 -28
23 -28 17 1 23 -5 25 -26 3 -26 6 -28 52 -28 46 0 49 2 52 27 2 22 8 28 28 28
24 0 25 2 28 78 l3 77 -31 0 c-25 0 -30 4 -30 25 0 20 -5 25 -25 25 -21 0 -25
5 -25 30 0 25 -4 30 -25 30 -20 0 -25 5 -25 25 0 20 5 25 25 25 20 0 25 5 25
25 0 20 5 25 25 25 20 0 25 5 25 24 0 19 6 25 28 28 25 3 27 6 27 53 0 47 -2
50 -27 53 -22 3 -28 9 -28 28 0 22 -4 24 -50 24 -47 0 -50 -2 -50 -25 0 -20
-5 -25 -25 -25 -20 0 -25 -5 -25 -25 0 -20 -5 -25 -24 -25 -19 0 -25 -6 -28
-27 -2 -22 -9 -29 -30 -31 -28 -3 -28 -2 -28 52 0 53 -1 56 -25 56 -20 0 -25
5 -25 25 l0 25 -105 0 -105 0 0 -25z m110 -50 c0 -20 -5 -25 -24 -25 -19 0
-25 -6 -28 -27 -2 -22 -9 -29 -30 -31 -28 -3 -28 -2 -28 52 l0 56 55 0 c52 0
55 -1 55 -25z"></path>
<path d="M2370 625 c0 -20 -5 -25 -25 -25 l-25 0 0 -260 0 -260 25 0 c21 0 25
-5 25 -30 l0 -30 259 0 260 0 3 27 c2 21 8 28 26 28 12 0 22 3 22 8 0 4 0 27
0 52 0 41 -2 45 -25 45 -20 0 -25 5 -25 25 l0 25 -130 0 -130 0 0 25 0 25 129
0 130 0 3 27 c2 20 9 29 26 31 34 5 31 52 -3 52 -20 0 -25 5 -25 25 l0 25
-130 0 -130 0 0 25 0 25 129 0 130 0 3 28 c2 21 9 28 29 30 22 3 25 7 21 28
-3 17 -11 24 -28 24 -19 0 -24 5 -24 25 l0 25 -260 0 -260 0 0 -25z m110 -49
c0 -19 -6 -25 -27 -28 -22 -2 -28 -8 -28 -28 0 -20 -6 -26 -28 -28 -27 -3 -27
-2 -27 52 l0 56 55 0 c52 0 55 -2 55 -24z"></path>
<path d="M3940 625 c0 -20 -5 -25 -25 -25 l-25 0 0 -264 0 -263 23 1 c17 1 23
-5 25 -26 l3 -28 259 0 259 0 3 27 c2 20 9 29 26 31 19 3 22 9 22 53 0 46 -2
49 -25 49 -20 0 -25 5 -25 25 l0 25 -130 0 -130 0 0 25 0 24 128 3 127 3 3 28
c3 21 9 27 28 27 19 0 24 5 24 25 0 20 -5 25 -25 25 -20 0 -25 5 -25 25 l0 25
-130 0 -130 0 0 25 0 25 130 0 130 0 0 30 c0 25 4 30 25 30 20 0 25 5 25 25 0
20 -5 25 -25 25 -20 0 -25 5 -25 25 l0 25 -260 0 -260 0 0 -25z m100 -49 c0
-18 -6 -25 -22 -28 -17 -2 -24 -11 -26 -30 -3 -22 -9 -28 -28 -28 -22 0 -24 3
-24 55 l0 55 50 0 c46 0 50 -2 50 -24z"></path>
<path d="M4670 625 c0 -20 -5 -25 -25 -25 l-25 0 0 -263 0 -264 23 1 c17 1 23
-5 25 -26 l3 -28 105 0 104 0 0 30 c0 25 4 30 25 30 l25 0 0 260 0 260 -25 0
c-20 0 -25 5 -25 25 l0 25 -105 0 -105 0 0 -25z m108 -52 c3 -17 -2 -22 -25
-25 -22 -2 -29 -9 -31 -30 -3 -22 -9 -28 -28 -28 -23 0 -24 3 -24 56 l0 55 53
-3 c45 -3 52 -6 55 -25z"></path>
<path d="M5980 626 c0 -19 -6 -25 -27 -28 l-28 -3 0 -260 0 -260 25 0 c20 0
26 -6 28 -27 l3 -28 260 0 259 0 0 30 c0 25 4 30 25 30 23 0 25 3 25 50 0 47
-2 50 -25 50 -20 0 -25 5 -25 25 l0 25 -130 0 -130 0 0 25 0 24 128 3 127 3 3
28 c3 21 9 27 28 27 19 0 24 5 24 25 0 20 -5 25 -25 25 -20 0 -25 5 -25 25 l0
25 -130 0 -130 0 0 25 0 24 128 3 127 3 3 28 c3 21 9 27 28 27 19 0 24 5 24
25 0 20 -5 25 -25 25 -20 0 -25 5 -25 25 l0 25 -260 0 -260 0 0 -24z m100 -51
c0 -20 -5 -25 -25 -25 -21 0 -25 -5 -25 -30 0 -25 -4 -30 -25 -30 -24 0 -25 3
-25 55 l0 55 50 0 c47 0 50 -2 50 -25z"></path>
<path d="M6710 626 c0 -19 -6 -25 -27 -28 l-28 -3 0 -260 0 -260 25 0 c20 0
26 -6 28 -27 l3 -28 99 0 99 0 3 28 c2 21 8 27 28 27 l25 0 0 260 0 260 -27 3
c-22 3 -28 9 -28 28 0 24 -1 24 -100 24 -99 0 -100 0 -100 -24z m100 -51 c0
-20 -5 -25 -25 -25 -21 0 -25 -5 -25 -31 0 -27 -3 -30 -27 -27 -25 3 -28 8
-31 42 -5 59 1 66 58 66 47 0 50 -2 50 -25z"></path>
</g>
</svg>